/* XPM */
static char *rsz_1vectorstock_42720710_removebg_preview1673102261[] = {
/* columns rows colors chars-per-pixel */
"64 64 198 2 ",
"   c None",
".  c #1A0B1E",
"X  c #1C0F21",
"o  c #1D1323",
"O  c #221324",
"+  c #261D28",
"@  c #2A1F2A",
"#  c #291828",
"$  c #3B1D2E",
"%  c #301D2C",
"&  c #2C212B",
"*  c #33232E",
"=  c #38272F",
"-  c #39282F",
";  c #2D2137",
":  c #332531",
">  c #392731",
",  c #3A2931",
"<  c #35263A",
"1  c #432736",
"2  c #412935",
"3  c #4D2A3B",
"4  c #45273D",
"5  c #552B3E",
"6  c #463036",
"7  c #483238",
"8  c #543B3C",
"9  c #52373A",
"0  c #5C423E",
"q  c #331F44",
"w  c #382247",
"e  c #3A2649",
"r  c #3D2B4B",
"t  c #432E4C",
"y  c #4B2B4D",
"u  c #492A46",
"i  c #542C4D",
"p  c #572E40",
"a  c #48334E",
"s  c #5A3341",
"d  c #58394D",
"f  c #462F50",
"g  c #4A3551",
"h  c #543A52",
"j  c #5F3351",
"k  c #672A47",
"l  c #6A3246",
"z  c #6B344C",
"x  c #6D394D",
"c  c #64364A",
"v  c #733B4E",
"b  c #76364E",
"n  c #6B3A54",
"m  c #773B50",
"M  c #7A3C51",
"N  c #4D4340",
"B  c #584644",
"V  c #574846",
"C  c #584845",
"Z  c #564157",
"A  c #5B4B5C",
"S  c #634442",
"D  c #694A49",
"F  c #74444E",
"G  c #754D4B",
"H  c #77554B",
"J  c #6D4D59",
"K  c #6E4D57",
"L  c #7E4253",
"P  c #794B5C",
"I  c #774756",
"U  c #6F515B",
"Y  c #6A5551",
"T  c #76555D",
"R  c #7D685A",
"E  c #784E60",
"W  c #79696D",
"Q  c #786268",
"!  c #7E7461",
"~  c #803D55",
"^  c #824356",
"/  c #844C54",
"(  c #864558",
")  c #8A455A",
"_  c #8B4A5B",
"`  c #8B4657",
"'  c #914D5D",
"]  c #9F565E",
"[  c #94585B",
"{  c #815E59",
"}  c #896857",
"|  c #98705B",
" . c #9C4F62",
".. c #964B60",
"X. c #9D5C63",
"o. c #925461",
"O. c #A05462",
"+. c #A35B63",
"@. c #A15D68",
"#. c #98666A",
"$. c #88766A",
"%. c #A56263",
"&. c #A96064",
"*. c #AB696A",
"=. c #A7646B",
"-. c #B06A65",
";. c #B16A6A",
":. c #A4776B",
">. c #BB796B",
",. c #B8736B",
"<. c #BE7B70",
"1. c #B37877",
"2. c #C37F6F",
"3. c #C47B73",
"4. c #91836F",
"5. c #B4846B",
"6. c #B98468",
"7. c #B98578",
"8. c #A59A7D",
"9. c #A99F7D",
"0. c #A78471",
"q. c #ABA27F",
"w. c #CB8472",
"e. c #CC8B75",
"r. c #C28973",
"t. c #D18B75",
"y. c #D18F79",
"u. c #CC9F7B",
"i. c #D5957B",
"p. c #DA9B7A",
"a. c #D69878",
"s. c #E39C7F",
"d. c #D6A67E",
"f. c #DAA27B",
"g. c #E3A37E",
"h. c #E4A97F",
"j. c #E9A77E",
"k. c #9E8E80",
"l. c #B88D81",
"z. c #B19F88",
"x. c #ADA380",
"c. c #B3A286",
"v. c #D29B84",
"b. c #C89987",
"n. c #E39D81",
"m. c #CDA88D",
"M. c #D7A78A",
"N. c #CFB88E",
"B. c #D6AA92",
"V. c #D8AC93",
"C. c #D5A791",
"Z. c #C3B494",
"A. c #DBB594",
"S. c #D5B896",
"D. c #E4A581",
"F. c #E3AA83",
"G. c #EAAD81",
"H. c #E2AA88",
"J. c #EDB285",
"K. c #EBB489",
"L. c #E6BB8E",
"P. c #EDBB8D",
"I. c #F1B384",
"U. c #F5BA86",
"Y. c #F2B789",
"T. c #F3BB8A",
"R. c #F9BB8A",
"E. c #ECBF90",
"W. c #E2B795",
"Q. c #DAC79D",
"!. c #F9C18D",
"~. c #EEC494",
"^. c #E2C39D",
"/. c #EECC9C",
"(. c #F4CA96",
"). c #FDCA94",
"_. c #F3CD9A",
"`. c #F5C594",
"'. c #F8D49E",
"]. c #D0C5A0",
"[. c #EED2A1",
"{. c #EEDCAA",
"}. c #EBD7A8",
"|. c #F2D6A2",
" X c #FDD7A2",
".X c #F3DAA6",
"XX c #FCDBA6",
"oX c #F1DEAB",
"OX c #FADDA9",
"+X c #EFE0AD",
"@X c #F2E1AC",
"#X c #FFE5AC",
"$X c #EEE4B0",
"%X c #F2E5B0",
"&X c #F9E7B1",
"*X c #FCEBB2",
"=X c #F7EDB3",
"-X c #FFF6BB",
/* pixels */
"                                                                                                                                ",
"                                                                                                                                ",
"                                                                                                                                ",
"                                                                                                                                ",
"                                                                                                                                ",
"                                                                                                                                ",
"                                                                                                                                ",
"                                                                                                                                ",
"                                                                                                                                ",
"                                                                                                                                ",
"                                                                                                                                ",
"                                                                                                                                ",
"                                                  2 9 0 8 8 8 8 8 8 9 8 s 8 2                                                   ",
"                                              - 6 ' g.T.I.U.T.T.Y.T.T.Y.R.M.' 6 ,                                               ",
"                                            3 X.g.F.G./.oX{.oX.XoXoX.X.X@X[.h.f.+.3                                             ",
"                                          3 +.D.J.G./.oX@X@XoX@XoXoX@X@X@X@X'.J.F.X.3                                           ",
"                                        p #.g.j.j._.@X@X{.@XoX@XoXoXoXoXoX@XoX[.J.g.] 5                                         ",
"                                      s m 3.U.I./.@X@X@X@X@XoX@X@X@X@XoX@XoXoX%X_.T.g.#.3                                       ",
"                                    5 ( &.e.I.J.@X@XoX@XoX@X@X@X@X@XoX@XoX@XoXoX%XP.j.D.+.3                                     ",
"                                  * _ _ y.U.G.~.@XoXoXoX@X@XoX@XoX@XoXoX&XoXoXoX+X~.J.J.D.X.*                                   ",
"                                  : ) ) r.I.P.%XoX@X@X@X@X@X@X@X@XoX@X@XoX@X@X@X@X%X(.h.I.f.=                                   ",
"                                  : ) ) e.J.E.@XoX@XoX@XoX@XoX@X@X@XOX@X+XoX@XoX+X@X~.j.I.f.-                                   ",
"                                  * ( ) p.:.Q *X{.@XoX@XoX@XoX@X@XoX%XoXoXoXoX.X*XW :.!.I.f.-                                   ",
"                                  * (  .m $.Q.@XoX@X@X@X@XoX@X@XoX+XoXoX%X+X+X%X~.N.$.I 3.f.=                                   ",
"                                  = ( m T m.-X{.+X_.(.(.|.@X@X+X@XoX+X|.(.(.(.(.F.XXQ.T G F.=                                   ",
"                                  * ) f 5.)./.'.'.e.e.3.H..X@X@XoX%XOXH.w.w.w.w.G.E.*X9.2 7.=                                   ",
"                                  * ) u 0.R.s.i.6.m v z #.G..X@XoX.XM.[ x v v x w.j.'.8.$ ^ *                                   ",
"                                  : _ $ 8. X2.x & * * & 5 %.J.{.oXY.S # : * & * x 2. X8.$ ' *                                   ",
"                                  * _ $ x.C.z : t t t f < 3 &.K.+X*.d r t t t t : l V.q.$ _ *                                   ",
"                                  * _ $ x.C.z r t t t f < 3 &.J.oX=.i t t t t t & k B.x.$ _ *                                   ",
"                                  * ' $ x.V.n f t t t f < 2 +.J.{.H.K e t t t t & z V.x.$ ' *                                   ",
"                                  * n O x.v.k r t t t t u / t.J.}.!.X.t f t t g & k C.8.O n *                                   ",
"                                  : ; S N.^.#.i e e r t _ i.(.J.@X_.y._ y e e < 3 [ W.N.S ; :                                   ",
"                                    0 d.XX=X^.+.U U K o.i.'./.p.A.%X'.v.o.U K C #.H.'.XXM.8                                     ",
"                                  , f..X+X@X[.K.Y.I.T.I././.e.M M N.oX%X|.Y.T.T.@X@XoX@XXXh.-                                   ",
"                                  , p..X@X{.oX[.G.G.[.@X_.t.M * : M V.&X.XoXoXoX{.{.oXoX@XQ.,                                   ",
"                                  , p.|.$X_.U.T.J.}.@X~.R.6.% * * % 5. X+X{.@X&X&X&X@XoX%XQ.,                                   ",
"                                  , j.).).7.B S ;.{.%XT.t.I * v v * I i._.%X}.1.Y N c.-X#XL.,                                   ",
"                                    H H T P x 5 s L.@XoX3.k F e.w.v k >.U.~.L.s p 5 D $.R H                                     ",
"                                      O u I O.( * >.~.*X].7.e.R.U.v.7.A.(.j.>.* ^ >./ # O                                       ",
"                                      & F ] _ M * z >.M.S.W.a.e.e.A.^.S.B.6.n * M p.n.I &                                       ",
"                                      & c ` ' ^ * & / @._ M ( X.#.^ b ' X._ r * M y.I.| O                                       ",
"                                        @ s  .^ * r r.XX4.. C }.}.C O } R.r.e * v s.} o                                         ",
"                                        + s  .L : t h Z g t a Z Z a u g h h t * m s.} X                                         ",
"                                        + s  .~ @ q e r e w e r t w w e t e q & z W.$..                                         ",
"                                        + 8 ..~ F c.A q W Z.k.r e 8.Z.W w A c.x ;.XX$..                                         ",
"                                        + p ;.,.' b.P i #.S.7.c j l.B.#.y P m.3.L.#X} o                                         ",
"                                          3 X.i.*.=.*.;.&. .] ;.*.+.] +.;.&.+.T.XXu.G                                           ",
"                                            1 ' F.OX`.P.T.`.T.P.T.T.T.P.P.P.`..XM.0                                             ",
"                                              2 ' f.[.{.{.@X{.{.+X{.oX{.oX}.[.G.8                                               ",
"                                                2 ' g.OX&X&X&X&X&X&X#X=XXXD.o.7                                                 ",
"                                                  2 9 B V C C C C V C B B 9 2                                                   ",
"                                                                                                                                ",
"                                                                                                                                ",
"                                                                                                                                ",
"                                                                                                                                ",
"                                                                                                                                ",
"                                                                                                                                ",
"                                                                                                                                ",
"                                                                                                                                ",
"                                                                                                                                ",
"                                                                                                                                ",
"                                                                                                                                ",
"                                                                                                                                "
};
