/* XPM */
static char *_041eed9dc4b4192f6a284a2cba31521kwS1BjHpUl9x70H4[] = {
/* columns rows colors chars-per-pixel */
"64 64 196 2 ",
"   c None",
".  c #130D0B",
"X  c #100907",
"o  c #1B1513",
"O  c #0E0705",
"+  c #24130B",
"@  c #2A160E",
"#  c #361302",
"$  c #391606",
"%  c #30170C",
"&  c #3E1A0A",
"*  c #2C1C16",
"=  c #281E18",
"-  c #331E15",
";  c #341D1A",
":  c #27211E",
">  c #2E2019",
",  c #34241C",
"<  c #3B241D",
"1  c #292422",
"2  c #3C2523",
"3  c #3B2924",
"4  c #550005",
"5  c #5C090E",
"6  c #5A050B",
"7  c #411E0E",
"8  c #5F0C11",
"9  c #421F10",
"0  c #5C1111",
"q  c #610C12",
"w  c #44200F",
"e  c #452212",
"r  c #492515",
"t  c #4D2817",
"y  c #4D2A19",
"u  c #45271C",
"i  c #522C1D",
"p  c #582B1F",
"a  c #54311F",
"s  c #422B24",
"d  c #4D2C24",
"f  c #4A2F2D",
"g  c #452A28",
"h  c #562E23",
"j  c #592E22",
"k  c #443127",
"l  c #4E3125",
"z  c #41352F",
"x  c #4C332C",
"c  c #543223",
"v  c #5B3425",
"b  c #543229",
"n  c #5E3629",
"m  c #5D3A2A",
"M  c #5C3926",
"N  c #4F3330",
"B  c #4D3B32",
"V  c #463B35",
"C  c #573A34",
"Z  c #7E2B2F",
"A  c #62362A",
"S  c #623D2D",
"D  c #693E2F",
"F  c #603326",
"G  c #623D31",
"H  c #6B3F31",
"J  c #613E3C",
"K  c #7C3835",
"L  c #4C423C",
"P  c #55453C",
"I  c #65412F",
"U  c #644232",
"Y  c #6D4334",
"T  c #6C4936",
"R  c #6D463C",
"E  c #6D4B3B",
"W  c #65413E",
"Q  c #714536",
"!  c #714638",
"~  c #744A3B",
"^  c #784D3E",
"/  c #73503E",
"(  c #5C4D45",
")  c #5F514A",
"_  c #6F4F42",
"`  c #744C43",
"'  c #784E40",
"]  c #764D49",
"[  c #764A48",
"{  c #6B5044",
"}  c #62534B",
"|  c #6A564B",
" . c #755444",
".. c #7A5544",
"X. c #7D5946",
"o. c #76554A",
"O. c #7D564B",
"+. c #7D5C4B",
"@. c #775949",
"#. c #7C5654",
"$. c #735D52",
"%. c #7B5B55",
"&. c #735352",
"*. c #7E695E",
"=. c #7E6252",
"-. c #7E6A60",
";. c #80292F",
":. c #832C31",
">. c #823235",
",. c #80413C",
"<. c #9D3F48",
"1. c #874744",
"2. c #815B47",
"3. c #825C4C",
"4. c #88554C",
"5. c #835E51",
"6. c #9D434A",
"7. c #A2454D",
"8. c #A9585D",
"9. c #B2545D",
"0. c #84614E",
"q. c #866353",
"w. c #896455",
"e. c #8D6B5B",
"r. c #876759",
"t. c #926154",
"y. c #956658",
"u. c #986659",
"i. c #906D5E",
"p. c #9C6D5F",
"a. c #8F705F",
"s. c #A65F60",
"d. c #B65C64",
"f. c #8D6C64",
"g. c #8A6665",
"h. c #916F61",
"j. c #9E6D61",
"k. c #8E7062",
"l. c #947464",
"z. c #9A7566",
"x. c #977867",
"c. c #9A7967",
"v. c #977A6A",
"b. c #9B7C6D",
"n. c #997768",
"m. c #9D7D72",
"M. c #957E71",
"N. c #A17265",
"B. c #A37769",
"V. c #A27C6D",
"C. c #B76F70",
"Z. c #C1636D",
"A. c #9E8172",
"S. c #978174",
"D. c #A28374",
"F. c #A68A7A",
"G. c #AA8D7E",
"H. c #A38778",
"J. c #AB8F80",
"K. c #BC8D80",
"L. c #AE9384",
"P. c #B19586",
"I. c #B29788",
"U. c #B49A8B",
"Y. c #B99D8E",
"T. c #BC9387",
"R. c #BA9F90",
"E. c #BDA192",
"W. c #C5958C",
"Q. c #C2A495",
"!. c #CBA295",
"~. c #C5A799",
"^. c #C8A799",
"/. c #CCAC9E",
"(. c #C6A99A",
"). c #D0A496",
"_. c #CEAFA0",
"`. c #D0AEA1",
"'. c #D8AFA0",
"]. c #CFB0A1",
"[. c #D3B3A5",
"{. c #DEB5A6",
"}. c #D6B7A8",
"|. c #DBB7A9",
" X c #DCBAAD",
".X c #D7B8A9",
"XX c #E0B7A9",
"oX c #E1B9AB",
"OX c #E2BFB2",
"+X c #E6C3B5",
"@X c #E8C4B6",
"#X c #EAC6B9",
"$X c #EDC9BC",
"%X c #F1CCBF",
"&X c #F3CEC1",
"*X c #F4D3C5",
/* pixels */
"                                                                                                                                ",
"                                                                                                                                ",
"                                                                                                                                ",
"                                                                                                                                ",
"                                                                                                                                ",
"                                                                                                                                ",
"                                                                                                                                ",
"                                                    = 3 k k k P ) ) } ) P s > >                                                 ",
"                                                L | / / 0.0.^ l.q.i.G.E.E.c.X./ < ,                                             ",
"                                              ( e./ T E e.a./ w y a M H.A.0./ / / / ,                                           ",
"                                            $.c.T a T 0.A.a.@.e  .X.w / x.a./ a M X.E @                                         ",
"                                        > =.+.M U +.a.G.Y.G.q.M e.A.w a x.I.e.Y r r T / >                                       ",
"                                      , S.+.w / x.x.0.a.H.H.G.I I G.a w T S.A.@.c & w I I +                                     ",
"                                      *.e.a e.r.I a T e.G.G.F.@.X.G.@.E / E T X./ c a y T k                                     ",
"                                    | D.T A.@.r a U / e.q. .E E A.E.0.X.X.0./ X.+.E E / M T ,                                   ",
"                                  : S./ D./ $ I a y y E T i y E E  .k.X.e.q./ I / E a / X.T  .                                  ",
"                                  ( i.X.q.i r e r r # e y U @. .@. .c i E m i w 7 / T I 0.2.U .                                 ",
"                                  | l.l.I E M & & W +.+.H.U..X$X&X$X[.k.{ @.@.o.r 7 U U +.v.2.(                                 ",
"                                z v.H.M S a w I l.I.R.R.I._.$X+X+X#X$XOXE.Y.E.Y.G.U 7 U y v.c.P                                 ",
"                                B U. .i Y 7 P L.Y.L.L.L.I.+X#X#X#X#X#X#X.XL.L.L.U.P.U y r m P.|                                 ",
"                                *.=.r I w U P.P.L.I.P.I.}.@X#X#X+X#X#X#X$X.XL.U.L.U.L.e y r +.A.o                               ",
"                              1 r.r M & M P.P.P.I.I.J._.&X#X#X#X#X#X#X#X#X#XE.L.U.L.U.e.7 e r =.1                               ",
"                                C e r e v.Y.P.P.I.L.R.#X#X#X#X#X#X#X#X#X#X+XY.L.I.I.L.U.G 7 7 E )                               ",
"                              - r r $  .R.L.U.P.J.I.#X#X#X#X$X@X#X#X#X#X#X+XU.L.L.I.L.Y.e.7 7 v L                               ",
"                              , y e & l.U.J.J.J.R. X#X#X#X@X$X$X#X#X#X#X+X#X XE.P.L.L.U.b.e 7 t ,                               ",
"                              + r & I U.P._._._.#X$X#X#X@X@X@X@X#X#X#X#X#X$X%X#X+X/.P.I.L.n 7 e a                               ",
"                              + t $ =.Y.[.&X&X&X&X#X#X#X$X$X#X#X#X#X#X#X+X}./.@X&X$XY.L.U.E & r c o                             ",
"                              + t $ @.R.OXoX^.Q.~.OX}._./.|.@X@X#X+X]./.Y.Y.I.Y.^.^.Y.I.U.b.9 9 l                               ",
"                              + t $  .E.b.v h h h ` 5.H.P.U.I.Q.Q.P.I.L.F.f.3.n j h p h.Y.J.r e @                               ",
"                              % t y k.P.T %.w.~ F h h j O.m.I.P.L.U.D.3.A p p j A 5.r.` b.L.e e %                               ",
"                            3 M y y L.P.r.c.q.m b b b F j Q m.I.I.m.! A j b d b A w.c.f.F.I.U # h 3                             ",
"                            ,  .w t G.=.Y n ; ; ; ; ; d Q H e.Y.Q.e.H ! d ; ; ; ; s D T m.E.=.# R g                             ",
"                              { U q.U.3.Y h g N ; ; C f d Q y.XXoXp.Q d f x ; 2 N 2 b H i.Y.H.R ] 2                             ",
"                            . E 2.x.Y.L.h.W f C 2 N g.#.+...p.XX{.j.l.#.#.#.f f &.s G f.J.P.P.] ] g                             ",
"                            . E X.n.I.P.I.J.] C #.5.m.J.Y.G.N.{.{.N.U.I.m.g.g.&.f  .I.Q.P.I.L.] [ 3                             ",
"                              E X.l.Y.L.R.[.Q.P.J.U. X+XQ.J.N.XX{.N.G.E.[.R.L.L.P.`.@XOXI.I.m.[ W o                             ",
"                              x +.l.Y.L._.&XOXOXOX&X#X#X#XP.N.XXXXj.V.`.&X#X+X+X@X$X$X_.L.R.g.[ C                               ",
"                              ,  .q.b.D.R.OX#X#X&XOXOX#X XG.T.@X{.j.V._.#X#X#X#X@X$X XI.m.m.w.[ g                               ",
"                                E 0.^ +.L.!.&XOX#X#X&XOX^.N.G.@X{.j.z.Y.+X#X#X#X#X@XE.J.! w.5.J o                               ",
"                                k 3.! D f.U.[.&X#XOX&X|.T.B.).@X{.N.u.J.#X#X#X@X+XQ.I.q.H O.#.2                                 ",
"                                  C / ! ~ b.U.|.#X#X$X}.J.j.).XX'.j.u.V. X#X#X$X_.P.b.Y R ~ N                                   ",
"                                    * R Q ~ F.Q.#X#X#X#XF.u.j.N.N.j.u.B.`.#X#X|.Y.b.! Y ' _                                     ",
"                                      m ~ Y h.U.E.#X#X$X^.y.t.t.t.t.j.!.+X$X XI.J.~ Y ~ Y o                                     ",
"                                      u ~ Y ! D.L./.$X#X#X/.V.w.e.h.J.OX&X#XR.I.l.H ! ! o.                                      ",
"                                      < ~ Q H e.Y.P.|.$X@X&X&XOX}.OXY.R._.R.L.Y.i.H Q ~ g                                       ",
"                                      * Y ~ Q ' J.P.I.[.OX/.W.!._.W.T.P.U.I.I.J.' Q Q ^ <                                       ",
"                                      . G ~ Q ~ J.I.5.r.1.Z ;.>.>.;.;.1.h.h.L.J.~ Q ! H *                                       ",
"                                        b ~ Y ~ L.L.~ 6 4 q 0 6 6 q q 4 0 3.P.L.~ H ~ G                                         ",
"                                        * Y Q ~ J.I.L.s.7.d.9.6.6.d.d.6.8.P.U.m.! ! Y ;                                         ",
"                                          d ^ H 5.I.I.I.Z.7.9.Z.C.9.6.C.Y.P.I.3.H ^ l                                           ",
"                                            l ~ Q m.I.I.G.^ K >.>.K 4.L.L.U.m.Q ! Y *                                           ",
"                                            , Y Q 3.I.P.U.U.L.l.i.m.Y.L.L.U.3.Y ! -                                             ",
"                                            x D H ! m.Y.OX@X@X#X#X#X@XQ.P.b.! Q c O                                             ",
"                                            < Q A D 3.P.|.$X#X#X@X#X@X~.J.^ H S m                                               ",
"                                            < ^ Y n n h.E.}.+X+X+X@X(.G.5.H n Q G X                                             ",
"                                            < ~ ! ! A E v.L.P.P.P.c.e.R v n Y ~ G .                                             ",
"                                            < Q H Y ~ Y n S S S A v v v H ~ ! ~ G .                                             ",
"                                            B n.e.^ ~ Q ~ Y H H H H Q ~ ! H H Q m                                               ",
"                                            ) E.I.J.G.5.H ! ~ ! ! ! ! Y ! e.i.^ ^ z                                             ",
"                                            -.Y.P.P.U.P.5.! H Y Y H Y 3.m.Y.Y.G.U.}                                             ",
"                                          o A.Y.P.P.P.P.P.G.l.i.h.f.m.P.Y.L.P.P.Y.}                                             ",
"                                          V J.I.P.P.P.P.P.P.U.U.U.I.U.P.L.I.I.L.Y.A.                                            ",
"                                          | Y.L.P.I.P.P.P.P.P.P.P.L.P.P.P.P.P.I.J.f.1                                           ",
"                                          M.U.P.P.P.P.P.P.P.P.P.P.P.I.P.I.L.L.Y.h.~ (                                           "
};
