/* XPM */
static char *a65de8e2ac904b30ebc85b4997a73cc5niuD69ZSERcMQeoo[] = {
/* columns rows colors chars-per-pixel */
"79 74 12 1 ",
"  c None",
". c #2F2F2E",
"X c #7E3030",
"o c #983636",
"O c #804020",
"+ c #A06040",
"@ c #2F5489",
"# c #255190",
"$ c #285DAA",
"% c #9299A4",
"& c gray69",
"* c white",
/* pixels */
"                                                                               ",
"                                                                               ",
"                                                                               ",
"                                                                               ",
"                                                                               ",
"                                                                               ",
"                                                                               ",
"                                                                               ",
"                                                                               ",
"                                                                               ",
"                                                                               ",
"                                                                               ",
"                              .     ....                                       ",
"                             .*. ...Xooo..                                     ",
"                             .*&.Xoooooooo..                                   ",
"                             .*.XooooooooooX..                                 ",
"                             ..XXooooooooooooX.                                ",
"                             .XXXoooooooooooooX.                               ",
"                            .XXXXooooooooooooooX.                              ",
"                           .XXXXXXoooooooooooooo.                              ",
"                           .XXXXXXXXoooooooooooo.                              ",
"                           .XXXXXXXXooooooooooooX.                             ",
"                           .XXXXXXXXooooooooooooo.                             ",
"                           .XXXXXXXXXoooooooooooo.                             ",
"                            .XXXXXXXXXooooooooooo.                             ",
"                            .XXXXXXXXXXoooooooooo.                             ",
"                             .XXXXXXXXXXooooooooo.                             ",
"                            ..XXXXXXXXXXXXooooooo.                             ",
"                           .++.XXXXXXXXXXXooooXoo.                             ",
"                          .O++.XXXXXXXXXXXXoooXXX.                             ",
"                          .OO+.XXXXXXXXXXXXooXXXX.                             ",
"                          .OOO.XXXXXXXXXXXXXoXXX.                              ",
"                          .OOOO.XXXXXXXXXXXXXXXX.                              ",
"                           .OOOO.XXXXXXXXXXXXXXX.                              ",
"                            ..OOO.XXXXXXXXXXXXX.                               ",
"                            .OOO++.XXXXXXXXXXXX.                               ",
"                            .OOO+++.XXXXXXXXX.                                 ",
"                            .OOOO+++...XXXXX.***                               ",
"                     ********.OOOO++++O..X..******                             ",
"                *************.OOOOOO++O++.+.*******                            ",
"              ****************.OOOOO+++O++O.*******                            ",
"          *********        ***.OOOOOO++O++.********                            ",
"       ******                  .....O++O++.******                              ",
"    *****                     .%%%%%..+O+O.                                    ",
"   ****                      .......%%....                                     ",
"   *****                    .+O.$$$$..%%%%.                                    ",
"    *******                .++O.$$$$@@.....                                    ",
"       *********          .++OO.$$$****$$.+.**                                 ",
"               ***************.#.$$$$$@$$.+.                                   ",
"                          .....#.$$$$$@@$$.+.                                  ",
"                               ...$$$$$@$$.O.                                  ",
"                                 .....$$$$...                                  ",
"                                      .......                                  ",
"                                                                               ",
"                                                                               ",
"                                                                               ",
"                                                                               ",
"                                                                               ",
"                                                                               ",
"                                                                               ",
"                                                                               ",
"                                                                               ",
"                                                                               ",
"                                                                               ",
"                                                                               ",
"                                                                               ",
"                                                                               ",
"                                                                               ",
"                                                                               ",
"                                                                               ",
"                                                                               ",
"                                                                               ",
"                                                                               ",
"                                                                               "
};
