/* XPM */
static char *_fe712eb00a54159bd9983a2161e1c90vS38gTzG3Mu1SWzh[] = {
/* columns rows colors chars-per-pixel */
"79 79 16 1 ",
"  c None",
". c #2F2F2E",
"X c #443122",
"o c #7E3030",
"O c #6F4827",
"+ c #983636",
"@ c #804020",
"# c #A06040",
"$ c #C0942D",
"% c #DAA935",
"& c #255190",
"* c #285DAA",
"= c #7E8590",
"- c #9299A4",
"; c gray69",
": c white",
/* pixels */
"                                                                               ",
"                                                                               ",
"                                                                               ",
"                                                                               ",
"                                                                               ",
"                                                                               ",
"                                                                               ",
"                                                                               ",
"                                                                               ",
"                                                                               ",
"                                                                               ",
"                                                                               ",
"                                     ....                                      ",
"                                 ....++++...                                   ",
"                               ..+++++ooo+++.                                  ",
"                           .  .+++++++oo.o+oo.                                 ",
"                          .;..++++++ooo.;.+ooo.                                ",
"                          .;:.+o.....o.:;.ooooo.                               ",
"                          .;:...@@@@@..:;.oooooo.                              ",
"                          .;.@@######@.:;.ooooooo.                             ",
"                           .@########.::;...ooooo.                             ",
"                           .####@###@:::;@@@.oooo.                             ",
"                          .@#@#@##@@#@:;@@@@.oooo..                            ",
"                          .;@#@@#@;;.@@@@@..ooooo.@.                           ",
"                          .:;.@@.::;.@@@@.oooooo.@@@.                          ",
"                         .@..@@@@...@@@@@.oooooo.@##@.                         ",
"                        .@#######@@@@@@@.oooooo.@####.                         ",
"                        .@######@@@@@@@.ooooooo.@####.                         ",
"                        .@.....@@@@@@@.oooooooo.@####.                         ",
"                        ........@@@@@.oooooooo.@@####.                         ",
"                         .%...$.@@@..ooooooooo.@@####.                         ",
"                        .%...$.....ooooooooooo.@@@##@.                         ",
"                         .%%$.ooooo+ooooooooo.@@@@@@@.                         ",
"                          ....++++++oooooooo..@###@@@.                  :      ",
"                             .++++++++ooo....#####@@.                  :       ",
"                             .+++++++++o.@@@.#####@@.                ::        ",
"                             ..+++++.++.##@@.#####@.               ::          ",
"                             .@..+..@..###@.@#####@.             ::            ",
"                            .@@.@.@@@@@##@.@@####@.            :::             ",
"                            .@@.@##@@@####..@@###@.           :::              ",
"                            .@@@.#@@@@@.....@####.          ::::               ",
"                            .....@#....XOO.@@###@.       ::::::                ",
"         :::::::::          .####...XOOOO..@@@@@.   :::::::::                  ",
"       :::::::::::::        .###@.OOO....-...... :::::::::::                   ",
"      :::::::::::::::::::...##@@@....=-....::::::::::::::                      ",
"     ::::::::::::::::::::::::::::::::::::::::::::::::                          ",
"     .:::::::::::::::::::::::::::::::::::::::::::#.                            ",
"      ..::::::::::::::::::::::::::::::::::::..@@###.                           ",
"        .:::::::::::::::::::::::::::::::::*.&&.@@##.                           ",
"        ..O:::::::::::::::::::::::::::****.&&&.@@##.                           ",
"       .OOOOOOO....:::::::::::::@@..*******....@@@@.                           ",
"       ........              ....@..........   .....                           ",
"                             .....             .....                           ",
"                                                                               ",
"                                                                               ",
"                                                                               ",
"                                                                               ",
"                                                                               ",
"                                                                               ",
"                                                                               ",
"                                                                               ",
"                                                                               ",
"                                                                               ",
"                                                                               ",
"                                                                               ",
"                                                                               ",
"                                                                               ",
"                                                                               ",
"                                                                               ",
"                                                                               ",
"                                                                               ",
"                                                                               ",
"                                                                               ",
"                                                                               ",
"                                                                               ",
"                                                                               ",
"                                                                               ",
"                                                                               ",
"                                                                               "
};
