/* XPM */
static char *rsz_hadik1673017221[] = {
/* columns rows colors chars-per-pixel */
"64 64 192 2 ",
"   c None",
".  c #030303",
"X  c #090605",
"o  c #050609",
"O  c #06090C",
"+  c #0A0B0D",
"@  c #0E0807",
"#  c #110D0B",
"$  c #040C10",
"%  c #0A0E12",
"&  c #110F10",
"*  c #0D1216",
"=  c #0D1419",
"-  c #07151C",
";  c #141314",
":  c #161718",
">  c #171819",
",  c #191A1B",
"<  c #1A1616",
"1  c #13100F",
"2  c #2B1914",
"3  c #361F19",
"4  c #36211C",
"5  c #3A231D",
"6  c #2C201E",
"7  c #0A172C",
"8  c #081326",
"9  c #1C1E21",
"0  c #111A2E",
"q  c #091831",
"w  c #1E2125",
"e  c #212529",
"r  c #22262B",
"t  c #332523",
"y  c #3C2621",
"u  c #3D2924",
"i  c #3A2D2B",
"p  c #352B2A",
"a  c #2B343E",
"s  c #273039",
"d  c #343134",
"f  c #432D26",
"g  c #442E28",
"h  c #4E3A35",
"j  c #4B3530",
"k  c #553D36",
"l  c #553E39",
"z  c #583D36",
"x  c #53302A",
"c  c #6F3B35",
"v  c #6C3B36",
"b  c #723E3A",
"n  c #62312C",
"m  c #57403B",
"M  c #5A433D",
"N  c #654437",
"B  c #6D4A3B",
"V  c #60473F",
"C  c #72413C",
"Z  c #714B3D",
"A  c #2D3741",
"S  c #2F3944",
"D  c #303A46",
"F  c #323D4A",
"G  c #3F3D47",
"H  c #403F4A",
"J  c #35414E",
"K  c #364351",
"L  c #394654",
"P  c #3A4857",
"I  c #3D4C5B",
"U  c #454148",
"Y  c #544645",
"T  c #5B4641",
"R  c #5B4844",
"E  c #544C4D",
"W  c #5C4C4A",
"Q  c #554846",
"!  c #464653",
"~  c #4A4652",
"^  c #494957",
"/  c #4D4C5A",
"(  c #464A5A",
")  c #564F50",
"_  c #524E59",
"`  c #55525D",
"'  c #58545F",
"]  c #575153",
"[  c #634B44",
"{  c #644F4A",
"}  c #624740",
"|  c #744F40",
" . c #63514D",
".. c #6A524B",
"X. c #765040",
"o. c #7A5242",
"O. c #645453",
"+. c #6D5C5B",
"@. c #6A5754",
"#. c #725952",
"$. c #715E5C",
"%. c #71605F",
"&. c #4B5162",
"*. c #585560",
"=. c #575764",
"-. c #465A70",
";. c #665F67",
":. c #4E687C",
">. c #506B7F",
",. c #776664",
"<. c #7B767E",
"1. c #74747F",
"2. c #726F78",
"3. c #935F5D",
"4. c #885653",
"5. c #94615F",
"6. c #966462",
"7. c #9B6A67",
"8. c #BC7D73",
"9. c #A16F6C",
"0. c #BD8075",
"q. c #C6867B",
"w. c #387596",
"e. c #337CA4",
"r. c #3A7DA2",
"t. c #526D82",
"y. c #557187",
"u. c #56738A",
"i. c #59758C",
"p. c #5A788F",
"a. c #5D7C94",
"s. c #5F7F98",
"d. c #797781",
"f. c #7D7982",
"g. c #777985",
"h. c #6C7A8B",
"j. c #827D84",
"k. c #3B81A7",
"l. c #3483AD",
"z. c #3B84AC",
"x. c #3A87B0",
"c. c #3B89B4",
"v. c #368EBD",
"b. c #398EBC",
"n. c #3688B3",
"m. c #3990BF",
"M. c #3790BF",
"N. c #62839C",
"B. c #4987AA",
"V. c #538BAB",
"C. c #448BB2",
"Z. c #4291BB",
"A. c #4B93BA",
"S. c #4D92B7",
"D. c #6587A1",
"F. c #6789A4",
"G. c #688CA7",
"H. c #3791C1",
"J. c #3992C2",
"K. c #4294C0",
"L. c #878288",
"P. c #AE9389",
"I. c #B4968A",
"U. c #B6998D",
"Y. c #B99A8E",
"T. c #B19387",
"R. c #B49C93",
"E. c #BB9D92",
"W. c #B48F8D",
"Q. c #BEA195",
"!. c #B5A39C",
"~. c #BEA69E",
"^. c #BEA89F",
"/. c #B4A6A1",
"(. c #BFA9A1",
"). c #C5969B",
"_. c #C6969B",
"`. c #C1A296",
"'. c #C3A59A",
"]. c #C7A89B",
"[. c #C9AA9D",
"{. c #CE9DA4",
"}. c #C7AFA6",
"|. c #CDAEA1",
" X c #CFA0A5",
".X c #CEB3A9",
"XX c #D3B5A9",
"oX c #D6B9AE",
"OX c #D3B4A7",
"+X c #DCBEB1",
"@X c #D4A3AB",
"#X c #E0C0B2",
/* pixels */
"                                                            % a.F.N.N.N.F.a.=                                                   ",
"                                                        + % J N.N.L L N.F.N.u.; o + o .                                         ",
"                                            + o . . . O >.u.p.p.J F J P a.D.F.p.a.y.J D O .                                     ",
"                                        . * :.S > > ; > 9 e e e J J D D P N.a.I p.L K i.L a *                                   ",
"                                      o a a e 9 , , , , : > > e y.J w F F J J , 9 9 a I u.I >.:                                 ",
"                                  . . : 9 , > < > , > > , > , D L S 9 S w > , , > > 9 D J J N.i.= O                             ",
"                                + : > , , > , , , , , > , < , 9 > , , , > , , > , , > w S e I N.N.t.= O +                       ",
"                            O : >.e < , , , , , , , , , > , , , , , , , , , , , , > , , S D u.N.a.I y.a.y.=                     ",
"                          + t.a.p.e ; , , , , , , < , , , , S S w a 9 , , > 9 a 9 9 , , 9 , r K J w L N.G.y.+                   ",
"                        . > J K e > > < , , , , , , , , , , , , , , , , , 9 a w , a 9 , , 9 D D F D F L N.a.O                   ",
"                      . ; > 9 a , > , , , , > , , , , , , , : > > > > , > , S , , D a 9 D D a w S F F K D.a.=                   ",
"                    . ; , , , , , , , , , > , , , , , , > , , , , 9 , , , , , , , , 9 9 a w 9 > 9 F F K a.F.y.+                 ",
"                    . > , , , > > , < , , , , a , , S , , , , , , S D w , , , , , , , , , , , > 9 A w D I D.a.O                 ",
"                    . > , , , , , > , , , , , e a e D , , , , , > w D S , : , , , , , > , , , , , , , J a.F.a.=                 ",
"                  . ; , , , , , , , , , , , , , , , , , , , , , , , , , , , , 9 a e > , , , , , , , , F a.F.F.u.+               ",
"                  . , , , , A , > , > , > : , , , , , , S , , , > , , : , , , , J a , , , > , < 9 A w , r s.D.p.O               ",
"                . : A 9 , , , , , , , , > e a , , , : , A , , , , , , , , a 9 , a w : , , , , , , F D 9 J p.L F O               ",
"                . , S , , , > , , , , > , D K , , , , , 9 , 9 a , > , , , w D J e > , : w S , > 9 D F K a.L w F A .             ",
"                . s w , , , , , > , , , , K p.J , , > 9 a r D F , , , , , S J i.D , : w S J , , , w D L p.K D F A o             ",
"                . o ; , , : , , , > , > , F a.L S w > , P t.w D J , , , , , 9 J K J w S J S , , : , D F K F F 9 o               ",
"                    . ; , > , , , , , , , , F F K S , L t.e 2 w t.e ; , , : ; w a.N.S 9 J D w , , , 9 F F K , ; .               ",
"                      . > , > : , , : , : 2 : D S , w t.e 5 5 ; w , ; ; ; ; ; > p.N.L , S D S , A , , D L >.O .                 ",
"                      . ; , , , : , e a : y y : ; ; ; > f U.U.g # ; 5 y y y y y , w >.e , w a w 9 , 9 D D %                     ",
"                        . > , , : e >., f U.U.f 5 y 5 g U.[.[.U.g g U.Q.Q.Y.Q.I.g 4 , ; 1 ; 9 S J F A e S o                     ",
"                        . ; , , , a 2 i Y.|.[.).Q.Q.Q.`.[.].].[.Q.E.].[.[.[.|.[.`.I.g 5 f 5 1 9 y.I S r t.+                     ",
"                        . > , , , : g Y.'.Q.`.'.Q.'.'.Q.'.[.[.].[.[.].Q.'.Q.Q.'.'.'.E.R.).I.i 6 r t.F r u.%                     ",
"                        . ; , > ; 5 Y.E.{ _ *.` ` ` ` ` =.R.Q.].].[.`...` ` ` ` &.` =.V.!.!.c.l.t , 9 J u.+                     ",
"                        . ; , , ; y T.@.~ ( ( ^ ^ ^ ^ ^ / ` ;.Q.[.[.'.` ( / ^ ( ( ^ ( ( =.B.J.c.t ; , L p.$                     ",
"                          . : , ; 4 R _ _ ' =.*.` ' ' ` ^ _ Y.].].].R.` ^ _ ` *.*.*.=.*.` &.x.l.t ; a L t.+                     ",
"                          . > > * 4 ~ =.E.E.U.E.Y.!.T.M m { '.[.].`...M M [ I.Q.E.E.U.Y.P.=.-.z.t ; w a %                       ",
"                          . ; > ; 4 ] R.E.[ g @.%.+.f 5 m [ Y.[.[.Q.[ M M O.+.%.+.+... .O.z.v.x.t ; , o                         ",
"                            . ; 4 k { E...3 5 5 4 4 4 4 5 m ..OXoX<.W m 5 u y 4 4 f ] w.E c.J.z.t ; s o                         ",
"                            X 1 3 M ..Y.R 5 W O.3 5 W 5 5 l [ XX+XL.2.M y W  .4 5 W g i W C.H.x.t ; o                           ",
"                          # 2 < 4 [ Q.`...M j O.y 5 3 5 l M ..OX#X.X<.R M y 5 5 u +.O.$.E./.A.c.p ; & o                         ",
"                        X N Z f k [ E.].`.`.Y.,.+.@.g k M T <.XX#XoXd.Q M k y W O.O.,.Q.|.[.!.Z.e.t t H +                       ",
"                        @ B Z Z M M ..`.[.[.[.`.'.'.U...} W <.oX#XoXg.B.) M m ..[ @.E.[.].[.!.Z.b./ ~ _ H o                     ",
"                        X B Z 4.X.M [ `.[.'.].[.[.[.[.`.U. .j.oX#XoXf.h.B.W ..Y.Q.Q.[.].].^.S.v.c.&./ / ~ .                     ",
"                        X B o.Z X.M [ Q.[.].].].'.[.[.[.'.j.}.+X+XoXf.d.!.`.`.[.[.[.].].].^.Z.H.c.&./ / ~ o                     ",
"                        X N 4.Z X.M [ Q.[.].].].].[.[.[.'.d.j..X#X.Xj.1.j.'.[.].].].].[.[.!.Z.v.c.&.^ / H o                     ",
"                          @ B o.X.M [ `.[.].[.].].[.].'.].j.g.L..XL.1.1.f.'.[.].[.].].[.'.S.v.b.c.&._ ! +                       ",
"                          X B o.X.M [ Y.].].].].].].].[.[.|..Xj.L.}.L.f.j.'.].].].].[.]./.Z.v.J.c.&./ ( o                       ",
"                          X Z o.X.V M ..'.].].].[.[.[.`.Y.#.E.].'.`.E.E.`.].].].].].[.'.S.b.b.v.x./ / U o                       ",
"                          X N o.o.R M [ Y.[.].].[.`.Y...[ M { Y.Y...[ ..Y.}.[.'.].].[./.m.b.H.c.&./ ~ +                         ",
"                            # N B M M M ..Y.[.[.Y...V M M M [ ....M m M W V.!.[.].]./.V.c.b.v.c.&./ H o                         ",
"                              o @ k R M M #.'.U.{ M [ { { ..Y.`.U...[ [ M Q ..U.[.(.V.) ) c.J.c.( G %                           ",
"                                  + h M ..Y.`.#.V ..T.Y.I.0.q.q.q.8.8.8.} M M #.`.[.R.[ R x.H.e.* .                             ",
"                                    @ [ Y.[.].Q.`.Y...c b b b b b c c c n n V U.].].Q.[ E c.n.-                                 ",
"                                    # T.|.].].].[.`...4.3.).).).).6.3.3.b v b `.[.|.`. .z.J.e.$                                 ",
"                                    # Y.[.].].].].].`.7.9.{.@X{.{._._._._._._.].].[.Y. .n.J.l.$                                 ",
"                                    # R.[.].`.Q.].].].`.Y.E.).7.6.6.5.9.].[.[.].[.!...Q c.H.e.O                                 ",
"                                    # P.|.'.....`.].].].#...[ M V M ..`.].].].].!.V.Y T c.n.-                                   ",
"                                      < U.E.M [ `.].].].Q.U...[ [ ..Y.[.].].].^.A.n.Q R b.e.O                                   ",
"                                      . M { M [ Y.].].].[.[.'.Q.).`.[.].].].[.^.Z.z.Q W w.-                                     ",
"                                      . 4 k T M ..].[.].[.].[.[.[.[.[.[.[.].]./.C.] M m t .                                     ",
"                                      X h f M m V U.`.`.'.].[.].[.`.Q.Q.Q.(.!.A.z.M z p .                                       ",
"                                      . m z 5 5 M [ [ [ ..Y.`.`.Y...[ V  .B.K.z.E y d w.$                                       ",
"                                      X k M M z f m m m M [ [ [ [ M M M M ) k.M d r.c.l.$                                       ",
"                                      + l W Q W k 5 5 m M M M M M M m m M m 5 d r.J.J.l.$                                       ",
"                                  . . k Q z.c.z.) M m 5 5 m m m M m 5 5 5 i Q z.J.b.J.l.*                                       ",
"                            . . . . O M W c.J.b.c.z.W M Q u i p p i m Q E k.c.M.b.b.b.c.U X . .                                 ",
"                          . o o o o + k W x.m.b.J.c.) B.c.x.x.x.x.x.c.c.c.M.M.m.b.b.J.c.Y 0 7 O . .                             ",
"                      . . o o o o o + k W c.b.b.H.x.) n.M.m.M.M.m.m.m.m.M.b.c.m.b.b.b.c.Y 0 q 7 o o . .                         ",
"                    . o o o o o o o + k W x.m.b.m.x.) k.b.m.b.b.b.b.x.c.b.c.m.m.H.b.H.c.Y q q 7 o o o 8 .                       ",
"                . . . o o o o o o o + k W c.m.m.m.c.R ) c.M.b.m.M.c.) ) c.m.m.m.b.b.b.c.Q 0 q 7 o o o O 8 . .                   "
};
