/* XPM */
static char *_b580823d8b345b2e1edc222cdba0568lbbRiGYUTJitRx0S[] = {
/* columns rows colors chars-per-pixel */
"64 68 197 2 ",
"   c #2C0D1D",
".  c #2F1020",
"X  c #341323",
"o  c #391626",
"O  c #371929",
"+  c #3B1B2C",
"@  c #3A1827",
"#  c #3F1E30",
"$  c #431F2E",
"%  c #411F31",
"&  c #45222F",
"*  c #462232",
"=  c #4B2533",
"-  c #4F2933",
";  c #4F2739",
":  c #512737",
">  c #542B34",
",  c #592E35",
"<  c #51273A",
"1  c #542A3A",
"2  c #5A2E3B",
"3  c #5D3235",
"4  c #5E313B",
"5  c #5E3839",
"6  c #653637",
"7  c #683737",
"8  c #63333C",
"9  c #6A373D",
"0  c #643A3B",
"q  c #6B3B3D",
"w  c #733D3C",
"e  c #783F3D",
"r  c #76413C",
"t  c #7C433D",
"y  c #5A2E40",
"u  c #5F3041",
"i  c #643343",
"p  c #693743",
"a  c #6D3A44",
"s  c #663648",
"d  c #673849",
"f  c #6D3B4A",
"g  c #723C44",
"h  c #723E4D",
"j  c #7A3F40",
"k  c #6F4148",
"l  c #744145",
"z  c #7D4343",
"x  c #7E4943",
"c  c #76424B",
"v  c #7B454B",
"b  c #7B4A4D",
"n  c #7E534C",
"m  c #764353",
"M  c #7A4654",
"N  c #7F4852",
"B  c #7A4758",
"V  c #7D4A5C",
"C  c #7F4D60",
"Z  c #83463D",
"A  c #84493F",
"S  c #8B4B3F",
"D  c #914E3F",
"F  c #95513F",
"G  c #814642",
"H  c #854943",
"J  c #8B4C44",
"K  c #81474B",
"L  c #844B4A",
"P  c #8C4E49",
"I  c #924F41",
"U  c #865145",
"Y  c #8F5142",
"T  c #84564A",
"R  c #8C534A",
"E  c #8C5A4C",
"W  c #945243",
"Q  c #9B5644",
"!  c #9E5945",
"~  c #93534A",
"^  c #98564B",
"/  c #93594D",
"(  c #9B5A4D",
")  c #824B54",
"_  c #834E5B",
"`  c #865053",
"'  c #8A5553",
"]  c #8C5B52",
"[  c #87505B",
"{  c #89535E",
"}  c #8D5A59",
"|  c #935C52",
" . c #9B5D53",
".. c #925658",
"X. c #A35C46",
"o. c #A95F46",
"O. c #A65E48",
"+. c #A85F48",
"@. c #A05E54",
"#. c #9D6047",
"$. c #946155",
"%. c #9A6254",
"&. c #95625A",
"*. c #9A635A",
"=. c #9D695A",
"-. c #A36047",
";. c #AB6147",
":. c #A5624A",
">. c #AC6349",
",. c #A5684A",
"<. c #AB6B4D",
"1. c #B1654A",
"2. c #B36A4C",
"3. c #B96E4D",
"4. c #AA704F",
"5. c #B6714E",
"6. c #BC734E",
"7. c #A46552",
"8. c #A66C53",
"9. c #AB6C52",
"0. c #A0625A",
"q. c #B26C52",
"w. c #AB7453",
"e. c #AE7956",
"r. c #AB7659",
"t. c #B57452",
"y. c #BC7451",
"u. c #B17B57",
"i. c #BE7A53",
"p. c #B2745A",
"a. c #B47B5D",
"s. c #BA7B59",
"d. c #814F61",
"f. c #855365",
"g. c #8B5561",
"h. c #855468",
"j. c #8E5861",
"k. c #AA7562",
"l. c #AC7860",
"z. c #B47D63",
"x. c #C0764E",
"c. c #C3794F",
"v. c #C37D53",
"b. c #C97E51",
"n. c #C17B55",
"m. c #BB8363",
"M. c #BD8768",
"N. c #C68155",
"B. c #CC8354",
"V. c #CF8856",
"C. c #C5835B",
"Z. c #C9855A",
"A. c #CC8B5C",
"S. c #C6895E",
"D. c #D28956",
"F. c #D38D5A",
"G. c #CD905F",
"H. c #D4915D",
"J. c #DA945D",
"K. c #CC8A61",
"L. c #C38D69",
"P. c #C38862",
"I. c #CD9263",
"U. c #CA936C",
"Y. c #D59562",
"T. c #D89661",
"R. c #DC9B64",
"E. c #D59C6D",
"W. c #DA9D6B",
"Q. c #D19768",
"!. c #D69E72",
"~. c #E09F65",
"^. c #DCA06B",
"/. c #DCA372",
"(. c #E4A266",
"). c #E5A66A",
"_. c #E2A46C",
"`. c #E5A86C",
"'. c #E6A96D",
"]. c #E9A96B",
"[. c #EBAB6F",
"{. c #EAAB6D",
"}. c #EAAB6F",
"|. c #E3A671",
" X c #E7AB74",
".X c #E5AA74",
"XX c #E7AC75",
"oX c #E5AA74",
"OX c #ECAE72",
"+X c #EFB275",
"@X c #EDB073",
"#X c #EEB379",
"$X c #F1B577",
"%X c #F0B577",
"&X c #F1B677",
"*X c #F0B375",
"=X c #F1B678",
/* pixels */
"O + * = # + # * * O + = * O + * * # + * * # O # * * O # = * O + * * O O & & + O # & & O + = * + + * * + + % * # O # * * O # = = ",
"- > 4 8 3 3 0 0 0 5 0 q 0 5 5 p 0 0 5 0 a 0 5 0 q 0 5 5 0 0 5 5 r a 5 3 r 5 0 5 0 0 0 5 0 0 0 0 5 q k 0 5 0 a 0 3 0 0 6 , , 4 4 ",
"t A J W X.,.,.>.w.r.w.<.4.w.e.u.u.e.t.p.u.e.e.4.,.4.e.w.<.4.w.e.r.m.w.m.m.m.m.w.4.<.4.w.w.<.4.w.e.e.e.w.e.u.u.9.,.,.,.#.Y H A A ",
"! X.;.2.b.F.J.J.R._.R.J.J.).'.'.'.'.|.|.`.'.).R.J.R.(.R.J.J.(.`./.`.^.].R.`.`.^.^.J.J.(.R.J.J.).'.`.`.`.'.'.).~.J.H.F.B.2.;.X.X.",
"F ! ;.6.F.~.[.[.+X*X+X X@X+X&X&X=X=X=X=X$X$X$XOXOX{.[.).(.(.].{.+X=X%X%X@X&X&X%X{.(.).{.[.OXOX=X&X&X=X=X=X$X$XOXOX]._.F.6.;.! W ",
"H W X.q.A.R.|. X X X X.XXXXXXXXX X X X X X X X XXX_.~.W.~.R.R._.|..X.X.X`.oXoXoX^.R.R.R.^.|..X.XXXXX.X.X.X.X X X X'.R.Z.2.X.J Z ",
"` ' ..0.p.v.K.K.K.K.K.K.K.K.K.K.K.K.K.K.K.K.K.K.K.Z.B.v.Z.N.v.s.C.C.C.C.u.N.m.S.C.t.t.i.i.s.s.n.C.C.C.C.C.K.K.K.K.Z.v.y.X.J t g ",
"f.f.f.j.7.2.2.2.2.2.2.2.2.1.2.2.1.1.2.2.1.2.2.2.2.2.2.q.2.>.O.O.O.:.-.-.W F -.,.X.W W ! ! W Q X.-.-.O.O.;.>.1.q.2.3.2.X.I Z p p ",
"d.h.h.g. .o.;.1.1.1.1.1.1.o.o.o.o.+.;.1.1.1.1.1.1.>.o.o.o.o.X.X.O.o.O.X.Q F Q Q F Z S F W I Q F X.o.o.o.;.;.1.2.>.1.>.^ G a p i ",
"h.h.h.g.^ O.;.>.1.>.>.>.;.X.X.X.! X.X.+.>.1.1.1.>.o.X.X.X.! ! O.o.;.X.! ! ! F S S S S S I ! X.! X.+.>.>.>.>.>.>.1.1.1.~ g i i i ",
"h.d.d._ ^ O.;.+.I G t Z G G z t r r r t G H P H G G J G r t G H G Z G G t t e e w 9 9 e r r t G H J P P P J J ! 1.2.1.~ g u y 2 ",
"h.f.V )  .>.;.! e > - 2 8 a p 2 , 2 4 3 4 p g 8 8 8 p 8 2 8 p p 8 8 p p 8 2 i p 8 2 4 9 8 4 8 p a g g g a 4 8 H +.3.1.~ g 2 1 < ",
"g.d.d._  .1.1.! q = 5 n $.&.$.E T T T T T R E U G w i k ` ] | ] U H U U a p b } / R E | ] E T E / | | | U 0 1 r O.2.>.I p < < : ",
"h.h.d.g.@.>.>.! w 2 n L././.E.I.I.I.G.G.G.N.b.N.i./ g ] L.W.Q.A.N.N.N.t.E N k.!.E.I.I.I.I.I.A.N.Z.A.I.Z.5.x 2 r X.1.>.I 8 ; : : ",
"h.h.d.g.7.>.;.! w 8 | W.OX|.W.R.R.Y.H.Y.J.F.B.B.b.( c *.W.[.R.F.N.B.B.6.' ) z._._.Y.Y.Y.H.A.A.B.B.A.A.V.5.x 2 e X.>.o.J 8 1 < 1 ",
"h.d.V ) ( 1.;.X.z p ^ A.F.v.n.y.y.2.2.y.y.y.3.2.;.E M %.A.H.n.3.<.1.;.-.G c 8.F.B.2.2.2.<.-.-.>.,.-.X.>.X.e , z +.>.o.J p u u u ",
"d._ B N ^ +.+.X.G a / v.B.2.O.Q W I W Q ( +.>.+.X.P )  .v.B.3.+.o.X.X.W z l 7.B.6.o.W S Z G t J S S D Q J w 4 H ;.1.o.J g i i i ",
"B B m K ~ O.o.( G f ^ v.b.>.I e 8 a g g z P X.>.+...M  .N.B.3.1.>.+.o.! K M 9.V.x.X.t 3 , 8 9 8 q S Q F S a p H >.2.1.P g i i i ",
"B B m M ~ X.o.! G a / N.B.1.S 8 2 a g s a P o.>.>.~ N  .N.B.3.1.1.>.o.^ K M 9.B.c.o.e = < p p 4 9 J X.F S w p J >.2.1.~ f i i s ",
"d._ B N ^ +.o.! G g / N.B.2.W p p H P j s I o.>.O.R N %.B.B.3.1.+.O.O.Q z c 7.V.c.X.G 8 q P P c c I X.X.W q 4 H >.1.O.J a i i i ",
"h.d.B ) ^ >.>.X.G a ^ N.B.3.Q g g ^ ( v g ~ +.1.X.L M  .N.B.2.;.o.O.X.Q z h :.B.c.-.H a z ( ^ N v ~ O.o.W w 4 z +.1.+.J a i i i ",
"V C h K ^ +.>.O.H f / v.B.3.Q g s K L c h P X.1.+.P h ^ b.B.2.;.+.;.O.Q K v 9.V.c.>.Z 8 i b K h c ^ >.;.Q r i G X.;.+.~ g i i s ",
"h m B M ~ O.1.+.H g | b.B.3.( K v N ) ) ) ^ X.1.+.P g E N.b.>.O.>.>.o.Q K ) 8.V.b.>.J q a N N c G ( >.;.Q z p G X.>.>.~ a i i u ",
"B h h M ^ +.2.>.P g ^ B.b.3.q.z.z.z.z.p.9.>.>.o.O.P v | v.B.2.;.;.+.O.Q c v 9.V.6.! #.8.r.z.r.9.:.;.>.>.X.l 8 G +.1.1.~ g u 2 2 ",
"h h B ) ( >.1.>.P a ~ v.b.2.n.E..X_.T.F.B.6.>.;.X.P M  .N.B.2.;.O.X.O.Q z g :.N.2.F ,.G.R.R.J.V.c.;.O.>.X.e 2 G +.1.>.~ g u 1 < ",
"B B V [ @.1.1.+.K g P 2.3.>.2.Z.K.Z.Z.v.6.2.;.1.;.P c | b.B.2.;.;.o.O.Q v c ( 5.>.! ,.i.N.C.Z.c.6.;.O.;.! z 8 G +.1.1.~ f u 2 2 ",
"h V d.g.@.>.+.X.G a z ( O.X.X.O.O.O.X.X.X.X.X.;.O.P g / v.N.>.O.;.>.+.^ K v R X.X.! W W W ! :.O.O.X.X.X.^ z p G X.>.1.~ g u i i ",
"B h B [ @.1.1.+.J a a j G G G G G H G t r z G H G g f / b.B.2.+.;.+.O.Q K h h G G r e e r r z z Z r r G z p 8 z X.+.>.Q a u u y ",
"h B ) )  .1.1.+.P p s a a a a a a a p 8 4 8 a 8 4 i c %.N.B.3.;.O.O.-.Q K d p a 8 4 8 s 8 4 4 s p 4 4 p p 2 2 t X.;.;.~ g u < < ",
") h h _ ^ +.1.+.J a b } *.$./ / L a d b E $./ T H R %.t.V.B.y.>.o.:.X.! ( %.%.| T H H x g i f ' $.E T E L a 8 r X.;.+.~ a u 2 2 ",
"h V d.d...X.o.X.z g ..U.^.Q.G.Z.9.v b r.E.E.I.C.N.v.N.B.D.b.3.1.>.>.X.>.C.I.Q.G.A.i.3.:.R v } L.E.Q.A.A.y.P p z Q X.+.J a i u u ",
"h d.C _ @.X.o.Q z f 0.|.OXR.H.D.2.x b M.@X`.Y.F.B.B.B.B.b.y.2.1.>.;.X.;.i.G.H.H.F.b.x.1.~ v &.E.@X(.J.F.n.P g G +.;.+.I h s u u ",
"h B h ) ( +.+.X.G a *.Q.R.v.y.3.O.z v m._.H.x.5.3.3.3.2.>.>.2.>.+.O.X.O.;.<.2.2.<.;.;.O.J g ] I.~.Z.y.6.>.L a J +.1.>.^ M s 2 1 ",
"B B h ) ( 1.1.O.G a %.Y.F.3.1.+.W g v a.T.v.1.>.1.1.>.;.:.;.>.>.o.O.X.O.O.O.X.X.! X.o.X.P g ' S.T.n.1.+.X.z a P +.2.1.( M s 2 > ",
"h B h _ ( 1.1.+.H g | Z.D.3.+.! J a z w.F.x.;.>.1.1.O.;.1.>.;.;.>.>.o.O.>.>.o.X.X.X.o.X.W v ..N.F.x.1.X.I g a H O.1.1.^ h i i y ",
"V h h ) ( 1.2.>.P a R q.y.+.W S j p c 7.y.:.W Q Q ^ W Q Q Q W W ! Q W W Q Q W W W Y D W L v ) 9.5.+.W J Z a s H ! +.+.~ g s i i ",
"h V h ) ( 1.2.>.P a a K K c l w a f h v K z g q 9 q g w q q g g q q w g q q a g q 9 9 g g d g v H g q p a p p H Q o.O.~ v a s s ",
"B h h _ ( 1.2.>.J p a c c b b c v ` ` b v c l a p k l g 0 a g l q a g l a q g l a 0 a l c c v c g q 0 a g s s H X.+.X.~ M h s i ",
"h h d.d.@.>.>.X.z 4 n k.M.M.m.z.s.m.m.z.e.w.9.w.r.w.<.w.w.w.<.9.r.w.w.<.w.r.w.<.w.r.w.9.t.u.u.w.,.,.:.! Y j d H Q +.+.~ j s s i ",
") B d.g.0.>.;.! r 4 ] /.%XXX_.R.R.R.R.R.R.F.V.H.J.H.V.F.R.J.F.F.Y.J.A.V.H.J.H.V.F.R.H.V.F.T.J.D.V.B.b.2.X.v a G X.>.1.~ g i s i ",
"d.d.d._ @.>.X.I w i $.W.[.Y.Z.Z.Z.Z.B.C.v.v.b.n.b.y.6.n.Z.B.b.n.N.v.i.6.n.v.i.6.i.v.i.6.6.v.v.6.3.2.>.o.I w 8 G O.>.+.~ h f s i ",
"h.d.) _ ^ +.X.I w a %.Q.Y.y.>.o.-.>.1.;.O.;.>.;.O.X.O.;.>.2.2.>.:.X.X.X.X.o.o.X.o.X.X.o.O.X.X.O.X.W D S Z 9 2 G +.1.X.~ K h s i ",
"d.d.h d.@.>.X.I z a $.A.V.2.X.O.o.o.o.X.X.O.;.O.X.X.X.O.;.;.;.o.o.X.X.X.X.X.X.X.o.;.-.o.X.X.X.! F F D S Z 9 8 H +.1.X.P h a s i ",
"h d.d.g.@.1.;.Q G q / B.b.>.O.>.>.O.X.! ! X.! X.! ! ! X.! X.! ! F ! ! ! ! ! ! X.X.;.o.! ! ! ! X.X.o.X.F Z g p J >.1.X.H h i i s ",
") d.d._ @.1.>.X.r i / A.Z.q.;.1.X.H e j H H H G z z H G t r t r Z t r t t t r t Z G G t t t J ! ;.O.X.F Z 9 i J ;.>.X.J a i i i ",
"d.f.h ) ( >.>.Q e 4 E G.H.3.1.1.Q 6 = 2 a a a 8 4 u p 0 4 2 2 1 2 , 2 2 , 2 2 2 2 3 , 2 , 2 w ! 1.o.! F Z 6 2 G +.1.X.J a u i s ",
"h.h.d.) ^ +.>.X.z 8 E K.F.y.1.2.W 3 % y s s i y y u s u u 2 y y 2 y y y 1 ; 1 < ; ; 1 ; ; ; a Q 1.>.X.F Z 9 8 G +.>.+.P g i i p ",
"f.h.f.d. .+.1.+.H a / B.B.3.1.2.Q 0 < s h f i s f h m m m f c f f m f f s i u u i u u i y i l X.1.1.o.Q S a i G X.1.+.~ g i i i ",
"d.f.f.g.@.O.;.o.K p R N.B.3.;.1.X.E ] &.*.&.] | *.*.*.*.%.$.*.*. .| *.$.E R E E E R R U R U W ;.1.1.o.Q Z w i G X.>.;.W a i y 2 ",
"h d.d.g.@.>.1.! j 4 U b.B.3.;.o.q.P.!.!.!.U.I.I.Q.I.I.K.N.C.K.I.C.Z.K.I.C.N.C.G.C.v.c.i.i.i.i.2.1.+.X.W Z 8 2 G o.1.o.P a y 2 1 ",
"h B d.d.@.>.>.O.e 2 J N.B.2.O.X.<.K._.'._.W.Y.Y.J.Y.Y.F.B.V.J.F.Z.V.H.H.A.B.D.H.F.Z.B.B.B.D.b.3.>.o.! F Z 6 , z >.1.X.P g y 1 1 ",
"B B h ) @.1.1.+.j , J c.B.;.X.X.+.9.y.v.n.y.5.2.5.t.q.2.2.2.2.2.2.2.2.5.2.2.2.5.2.2.1.1.3.5.3.3.1.X.X.I Z 6 2 Z ;.1.X.H p i y i ",
"M h h [ @.>.1.+.t 4 A i.c.;.X.X.X.X.! ;.;.;.X.X.! ! X.X.F X.! X.! X.X.! X.X.F X.! X.! ! X.o.o.1.+.X.F F Z 7 1 G +.+.X.H g u u u ",
"h V V { @.1.>.X.r 3 t 2.3.;.X.O.o.-.X.F F F X.F W Q o.F Q F X.! W F ! X.F F X.X.F F D F F F F F Q I F D Z 6 , G >.o.I G a u 2 2 ",
"B B d.{ @.>.>.! r 1 q W ! W D F D F D A A S D A t S S S Z Z S S Z Z S S Z t S D S Z t Z Z t t t t Z t Z e , , Z +.o.D j i y 1 < ",
"h B B _ ^ +.>.+.r = * 3 6 6 3 3 3 3 3 > > 3 3 , > , 3 , > , 3 3 > > 3 3 , > , 3 > > > > > > > , > > > > > $ $ Z +.>.Q Z 8 2 y 2 ",
"B m m M ~ O.1.o.t - & & = & & - & - - = = = = & - & = & = = = * = = & - & - & - & & = & & & & & & & & & & & : Z >.1.X.Z 2 1 y i ",
"d._ m M ~ ;.;.O.Y r 7 7 7 q r r w e r t t t t r r r t t r r t t t t t t t t t r w w r r r r w 7 7 w r t t t Z Q >.>.X.J 8 2 2 2 ",
"f.d.B N ^ >.o.X.-.! F D F F F F X.o.+.+.>.>.,.o.F -.>.-.! ! ;.;.;.;.;.>.;.;.,.,.O.X.! X.F X.F S D W X.-.>.>.1.1.1.>.X.J g y 1 : ",
"_ V B ) ^ >.1.;.>.-.X.F X.-.;.1.o.1.1.>.1.1.;.;.-.1.;.;.>.;.>.1.1.1.1.1.2.1.1.1.1.1.>.>.1.;.-.! F -.;.;.1.2.2.2.>.;.X.P g y 2 2 ",
"m B h N P O.+.1.O.X.! ! F X.! X.X.X.X.X.! X.X.X.X.! X.! ! ! X.! ! X.! ! ! -.! X.+.>.>.>.O.X.! ! X.X.! ! X.+.+.+.X.X.! H a i i i ",
"m h h h G H P P P H G Z A U H t G H G t z H H H S H H A Z G H H x t t t t t A H G J J ~ J z Z J J J H H J P P P J G z w i y i i ",
"B h f s s a a a a p i 2 8 s i 4 4 i s 4 2 8 a a d a d 8 , 4 i i 4 , 2 , 1 4 8 p 8 2 8 p 8 2 2 p p s a a a a a a p 8 2 > < 2 u i ",
"h h a i y y i i i 2 2 1 1 2 2 2 1 2 2 2 1 2 y 2 2 y 4 2 ; ; 1 1 < = = ; = ; 1 4 y 1 2 y 2 2 2 y 2 i i i y y y y 2 < < = : 1 2 y ",
"s s s i 2 < 4 i 4 1 2 4 y 1 2 4 4 2 1 u u 2 < 1 1 > 1 = : = * * * > = : : : : > 2 u 4 1 2 u u 2 1 i u 2 < < 1 > ; ; - ; ; = - > ",
"2 1 < < = = : < = * ; < : $ $ : < $ $ < < = * $ $ % * * $ $ + + + $ % $ $ $ $ $ $ 1 : $ $ : : $ $ : : ; * % $ % = = = = = & & & ",
"% % @ o + + @ o + O + o X X X X o # $ $ O + # o o o + + X o O + o X X X X X X . X X X X X X o $ % @ o + + o o o # # # # # O X X ",
"# O .   o + X   X + o           . o o     X + X   X + o   X O O .                           . o @ . . o + X   X + + + + + O .   "
};
